# This file uses centimeters as units for non-parametric coordinates.

mtllib bo2.mtl
g default
v 0.613270 0.000338 -0.199264
v 0.521678 0.000338 -0.379022
v 0.379021 0.000338 -0.521678
v 0.199263 0.000338 -0.613270
v -0.000000 0.000338 -0.644830
v -0.199263 0.000338 -0.613270
v -0.379022 0.000338 -0.521678
v -0.521678 0.000338 -0.379022
v -0.613270 0.000338 -0.199263
v -0.644830 0.000338 -0.000000
v -0.613270 0.000338 0.199263
v -0.521678 0.000338 0.379021
v -0.379021 0.000338 0.521678
v -0.199263 0.000338 0.613269
v -0.000000 0.000338 0.644829
v 0.199263 0.000338 0.613269
v 0.379021 0.000338 0.521678
v 0.521678 0.000338 0.379021
v 0.613269 0.000338 0.199263
v 0.644830 0.000338 -0.000000
v 0.939425 0.246315 -0.305238
v 0.799123 0.246315 -0.580597
v 0.580597 0.246315 -0.799123
v 0.305238 0.246315 -0.939426
v -0.000000 0.246315 -0.987771
v -0.305238 0.246315 -0.939425
v -0.580597 0.246315 -0.799123
v -0.799123 0.246315 -0.580596
v -0.939425 0.246315 -0.305238
v -0.987770 0.246315 -0.000000
v -0.939425 0.246315 0.305238
v -0.799123 0.246315 0.580597
v -0.580596 0.246315 0.799122
v -0.305238 0.246315 0.939425
v -0.000000 0.246315 0.987770
v 0.305238 0.246315 0.939425
v 0.580597 0.246315 0.799122
v 0.799122 0.246315 0.580596
v 0.939425 0.246315 0.305238
v 0.987770 0.246315 -0.000000
vt 0.375000 0.312500
vt 0.387500 0.312500
vt 0.400000 0.312500
vt 0.412500 0.312500
vt 0.425000 0.312500
vt 0.437500 0.312500
vt 0.450000 0.312500
vt 0.462500 0.312500
vt 0.475000 0.312500
vt 0.487500 0.312500
vt 0.500000 0.312500
vt 0.512500 0.312500
vt 0.525000 0.312500
vt 0.537500 0.312500
vt 0.550000 0.312500
vt 0.562500 0.312500
vt 0.575000 0.312500
vt 0.587500 0.312500
vt 0.600000 0.312500
vt 0.612500 0.312500
vt 0.625000 0.312500
vt 0.375000 0.688440
vt 0.387500 0.688440
vt 0.400000 0.688440
vt 0.412500 0.688440
vt 0.425000 0.688440
vt 0.437500 0.688440
vt 0.450000 0.688440
vt 0.462500 0.688440
vt 0.475000 0.688440
vt 0.487500 0.688440
vt 0.500000 0.688440
vt 0.512500 0.688440
vt 0.525000 0.688440
vt 0.537500 0.688440
vt 0.550000 0.688440
vt 0.562500 0.688440
vt 0.575000 0.688440
vt 0.587500 0.688440
vt 0.600000 0.688440
vt 0.612500 0.688440
vt 0.625000 0.688440
vn 0.554310 -0.812590 -0.180106
vn 0.471524 -0.812590 -0.342582
vn 0.471524 -0.812590 -0.342582
vn 0.554310 -0.812590 -0.180106
vn 0.342582 -0.812590 -0.471524
vn 0.342582 -0.812590 -0.471524
vn 0.180106 -0.812590 -0.554310
vn 0.180106 -0.812590 -0.554310
vn -0.000000 -0.812590 -0.582836
vn -0.000000 -0.812590 -0.582836
vn -0.180106 -0.812590 -0.554310
vn -0.180106 -0.812590 -0.554310
vn -0.342583 -0.812590 -0.471524
vn -0.342583 -0.812590 -0.471524
vn -0.471525 -0.812590 -0.342582
vn -0.471525 -0.812590 -0.342582
vn -0.554310 -0.812590 -0.180106
vn -0.554310 -0.812590 -0.180106
vn -0.582836 -0.812590 -0.000000
vn -0.582836 -0.812590 0.000000
vn -0.554310 -0.812590 0.180107
vn -0.554310 -0.812590 0.180107
vn -0.471524 -0.812590 0.342583
vn -0.471524 -0.812590 0.342583
vn -0.342583 -0.812590 0.471524
vn -0.342583 -0.812590 0.471525
vn -0.180107 -0.812590 0.554310
vn -0.180107 -0.812590 0.554310
vn 0.000000 -0.812590 0.582836
vn 0.000000 -0.812590 0.582836
vn 0.180107 -0.812590 0.554310
vn 0.180107 -0.812590 0.554310
vn 0.342583 -0.812590 0.471524
vn 0.342583 -0.812590 0.471524
vn 0.471524 -0.812590 0.342583
vn 0.471524 -0.812590 0.342583
vn 0.554310 -0.812590 0.180107
vn 0.554310 -0.812590 0.180107
vn 0.582836 -0.812590 0.000001
vn 0.582836 -0.812590 0.000001
s 1
g pCylinder2
usemtl initialShadingGroup
f 1/1/1 2/2/2 22/23/3 21/22/4
f 2/2/2 3/3/5 23/24/6 22/23/3
f 3/3/5 4/4/7 24/25/8 23/24/6
f 4/4/7 5/5/9 25/26/10 24/25/8
f 5/5/9 6/6/11 26/27/12 25/26/10
f 6/6/11 7/7/13 27/28/14 26/27/12
f 7/7/13 8/8/15 28/29/16 27/28/14
f 8/8/15 9/9/17 29/30/18 28/29/16
f 9/9/17 10/10/19 30/31/20 29/30/18
f 10/10/19 11/11/21 31/32/22 30/31/20
f 11/11/21 12/12/23 32/33/24 31/32/22
f 12/12/23 13/13/25 33/34/26 32/33/24
f 13/13/25 14/14/27 34/35/28 33/34/26
f 14/14/27 15/15/29 35/36/30 34/35/28
f 15/15/29 16/16/31 36/37/32 35/36/30
f 16/16/31 17/17/33 37/38/34 36/37/32
f 17/17/33 18/18/35 38/39/36 37/38/34
f 18/18/35 19/19/37 39/40/38 38/39/36
f 19/19/37 20/20/39 40/41/40 39/40/38
f 20/20/39 1/21/1 21/42/4 40/41/40
