# This file uses centimeters as units for non-parametric coordinates.

mtllib tagg.mtl
g default
v 0.500000 0.000000 -0.866025
v -0.500000 0.000000 -0.866026
v -1.000000 0.000000 -0.000000
v -0.500000 0.000000 0.866025
v 0.500000 0.000000 0.866025
v 1.000000 0.000000 0.000000
v 0.000000 2.000000 0.000000
v 0.855676 -1.039305 -0.000000
v 0.427838 -1.039305 -0.741037
v 0.427838 -1.039305 0.741037
v -0.427838 -1.039305 0.741037
v -0.855676 -1.039305 -0.000000
v -0.427838 -1.039305 -0.741037
vt 0.625000 0.033494
vt 0.375000 0.033494
vt 0.250000 0.250000
vt 0.375000 0.466506
vt 0.625000 0.466506
vt 0.750000 0.250000
vt 0.250000 0.500000
vt 0.333333 0.500000
vt 0.416667 0.500000
vt 0.500000 0.500000
vt 0.583333 0.500000
vt 0.666667 0.500000
vt 0.750000 0.500000
vt 0.500000 1.000000
vt 0.625000 0.033494
vt 0.750000 0.250000
vt 0.625000 0.466506
vt 0.375000 0.466506
vt 0.250000 0.250000
vt 0.375000 0.033494
vn 0.000000 -1.000000 0.000000
vn 0.000000 -1.000000 0.000000
vn 0.000000 -1.000000 0.000000
vn 0.447214 0.447214 -0.774597
vn -0.447213 0.447214 -0.774597
vn 0.000000 1.000000 0.000000
vn -0.894427 0.447214 -0.000000
vn -0.447214 0.447214 0.774597
vn 0.447214 0.447214 0.774597
vn 0.894427 0.447214 0.000000
vn 0.495248 -0.137546 -0.857794
vn 0.990495 -0.137546 0.000000
vn 0.990495 -0.137546 0.000000
vn 0.495248 -0.137546 -0.857794
vn 0.495248 -0.137546 0.857794
vn 0.495248 -0.137546 0.857794
vn -0.495248 -0.137546 0.857794
vn -0.495248 -0.137546 0.857794
vn -0.990495 -0.137546 -0.000000
vn -0.990495 -0.137546 -0.000000
vn -0.495248 -0.137546 -0.857794
vn -0.495248 -0.137546 -0.857794
vn 0.000000 -1.000000 0.000000
vn 0.000000 -1.000000 0.000000
vn 0.000000 -1.000000 0.000000
s 1
g pCone1
usemtl initialShadingGroup
f 13/20/1 11/18/2 12/19/3
s 2
f 1/7/4 2/8/5 7/14/6
f 2/8/5 3/9/7 7/14/6
f 3/9/7 4/10/8 7/14/6
f 4/10/8 5/11/9 7/14/6
f 5/11/9 6/12/10 7/14/6
f 6/12/10 1/13/4 7/14/6
s 3
f 1/1/11 6/6/12 8/16/13 9/15/14
f 6/6/12 5/5/15 10/17/16 8/16/13
f 5/5/15 4/4/17 11/18/18 10/17/16
f 4/4/17 3/3/19 12/19/20 11/18/18
f 3/3/19 2/2/21 13/20/22 12/19/20
f 2/2/21 1/1/11 9/15/14 13/20/22
s 1
f 9/15/23 8/16/24 10/17/25
f 9/15/23 10/17/25 11/18/2 13/20/1
g default
v 3.186057 0.000000 -0.866025
v 2.186057 0.000000 -0.866026
v 1.686057 0.000000 -0.000000
v 2.186057 0.000000 0.866025
v 3.186057 0.000000 0.866025
v 3.686057 0.000000 0.000000
v 2.686057 2.000000 0.000000
v 3.541733 -1.039305 -0.000000
v 3.113895 -1.039305 -0.741037
v 3.113895 -1.039305 0.741037
v 2.258219 -1.039305 0.741037
v 1.830381 -1.039305 -0.000000
v 2.258219 -1.039305 -0.741037
vt 0.625000 0.033494
vt 0.375000 0.033494
vt 0.250000 0.250000
vt 0.375000 0.466506
vt 0.625000 0.466506
vt 0.750000 0.250000
vt 0.250000 0.500000
vt 0.333333 0.500000
vt 0.416667 0.500000
vt 0.500000 0.500000
vt 0.583333 0.500000
vt 0.666667 0.500000
vt 0.750000 0.500000
vt 0.500000 1.000000
vt 0.625000 0.033494
vt 0.750000 0.250000
vt 0.625000 0.466506
vt 0.375000 0.466506
vt 0.250000 0.250000
vt 0.375000 0.033494
vn 0.000000 -1.000000 0.000000
vn 0.000000 -1.000000 0.000000
vn 0.000000 -1.000000 0.000000
vn 0.000000 0.397360 -0.917663
vn 0.000000 0.397360 -0.917663
vn 0.000000 0.397360 -0.917663
vn -0.794719 0.397360 -0.458832
vn -0.794719 0.397360 -0.458832
vn -0.794719 0.397360 -0.458832
vn -0.794720 0.397360 0.458831
vn -0.794720 0.397360 0.458831
vn -0.794719 0.397360 0.458831
vn -0.000000 0.397360 0.917663
vn -0.000000 0.397360 0.917663
vn -0.000000 0.397360 0.917663
vn 0.794719 0.397360 0.458831
vn 0.794719 0.397360 0.458831
vn 0.794720 0.397360 0.458831
vn 0.794719 0.397360 -0.458831
vn 0.794719 0.397360 -0.458831
vn 0.794720 0.397360 -0.458831
vn 0.859830 -0.119401 -0.496423
vn 0.859830 -0.119401 -0.496423
vn 0.859830 -0.119401 -0.496423
vn 0.859830 -0.119401 -0.496423
vn 0.859830 -0.119401 0.496423
vn 0.859830 -0.119401 0.496423
vn 0.859830 -0.119401 0.496423
vn 0.859830 -0.119401 0.496423
vn -0.000000 -0.119401 0.992846
vn -0.000000 -0.119401 0.992846
vn -0.000000 -0.119401 0.992846
vn -0.000000 -0.119401 0.992846
vn -0.859830 -0.119401 0.496423
vn -0.859830 -0.119401 0.496423
vn -0.859830 -0.119401 0.496423
vn -0.859830 -0.119401 0.496423
vn -0.859830 -0.119401 -0.496423
vn -0.859830 -0.119401 -0.496423
vn -0.859830 -0.119401 -0.496423
vn -0.859830 -0.119401 -0.496423
vn 0.000000 -0.119401 -0.992846
vn 0.000000 -0.119401 -0.992846
vn 0.000000 -0.119401 -0.992846
vn 0.000000 -0.119401 -0.992846
vn 0.000000 -1.000000 0.000000
vn 0.000000 -1.000000 0.000000
vn 0.000000 -1.000000 0.000000
vn 0.000000 -1.000000 0.000000
vn 0.000000 -1.000000 0.000000
vn 0.000000 -1.000000 0.000000
vn 0.000000 -1.000000 0.000000
s off
g pCone2
usemtl initialShadingGroup
f 26/40/26 24/38/27 25/39/28
f 14/27/29 15/28/30 20/34/31
f 15/28/32 16/29/33 20/34/34
f 16/29/35 17/30/36 20/34/37
f 17/30/38 18/31/39 20/34/40
f 18/31/41 19/32/42 20/34/43
f 19/32/44 14/33/45 20/34/46
f 14/21/47 19/26/48 21/36/49 22/35/50
f 19/26/51 18/25/52 23/37/53 21/36/54
f 18/25/55 17/24/56 24/38/57 23/37/58
f 17/24/59 16/23/60 25/39/61 24/38/62
f 16/23/63 15/22/64 26/40/65 25/39/66
f 15/22/67 14/21/68 22/35/69 26/40/70
f 22/35/71 21/36/72 23/37/73
f 22/35/74 23/37/75 24/38/76 26/40/77
